<svg xmlns="http://www.w3.org/2000/svg" viewBox="0 0 256 256" width="50" height="50"><path d="M224 66.288c-7.056 3.125-14.645 5.21-22.65 6.197 8.138-4.832 14.4-12.538 17.338-21.642-7.616 4.464-16.053 7.744-25.03 9.472-7.167-7.6-17.391-12.315-28.72-12.315-21.76 0-39.397 17.483-39.397 39.04 0 3.05.358 6.021 1.03 8.907C93.835 94.304 64.8 78.74 45.376 55.125c-3.413 5.771-5.333 12.528-5.333 19.659 0 13.552 6.938 25.483 17.52 32.512-6.459-.197-12.539-1.995-17.862-4.875v.459c0 18.939 13.584 34.71 31.59 38.299a39.177 39.177 0 01-10.352 1.402c-2.544 0-5.024-.288-7.424-.72 5.013 15.478 19.557 26.79 36.789 27.126C76.82 179.44 59.84 185.7 41.376 185.7c-3.19 0-6.31-.181-9.392-.554 17.445 11.045 38.16 17.52 60.395 17.52 72.453 0 112.09-59.5 112.09-111.115 0-1.69-.053-3.376-.133-5.04 7.733-5.461 14.4-12.352 19.664-20.224" fill="#000507" font-family="none" font-weight="none" font-size="none" text-anchor="none"/></svg>