<svg xmlns="http://www.w3.org/2000/svg" viewBox="0 0 48 48" width="160" height="160" baseProfile="basic"><circle cx="24" cy="24" r="20" fill="#216287"/><circle cx="24" cy="24" r="18" fill="#e87912"/><path fill="#216287" d="M29.69 31.95c0 4.35-3.09 7.98-7.19 8.82l-.55.1C13.53 39.87 7 32.7 7 24c0-9.39 7.61-17 17-17 .17 0 .35 0 .52.01-3.5 1.23-6.02 4.56-6.02 8.49 0 1.49.36 2.9 1.01 4.14.86 1.66 2.3 2.94 3.97 3.78l1.22.61c1.67.84 3.12 2.12 3.98 3.78a9.014 9.014 0 011.01 4.14z"/><path fill="#fff" d="M24 6C14.059 6 6 14.059 6 24c0 8.671 6.132 15.906 14.295 17.614l.012.063.159-.029C21.609 41.876 22.79 42 24 42c9.941 0 18-8.059 18-18S33.941 6 24 6zM8 24c0-7.935 5.813-14.521 13.4-15.769C19.309 9.994 18 12.626 18 15.5c0 1.519.367 3.029 1.062 4.368.865 1.668 2.316 3.051 4.197 3.996l1.219.613c1.691.852 2.991 2.084 3.759 3.564a8.397 8.397 0 01.949 3.907c0 3.645-2.35 6.857-5.711 8.024C14.897 39.693 8 32.645 8 24zm17.905 15.876c2.599-1.721 4.281-4.668 4.281-7.927 0-1.52-.367-3.029-1.062-4.368-.865-1.668-2.316-3.051-4.197-3.996l-1.219-.613c-1.692-.852-2.991-2.083-3.759-3.564A8.404 8.404 0 0119 15.5c0-3.173 1.781-6.017 4.464-7.473.179-.006.355-.027.536-.027 8.822 0 16 7.178 16 16 0 8.177-6.169 14.93-14.095 15.876z"/><path fill="#fff" d="M38.458 27.528c-.776-.927-2.018-1.829-2.809-3.135a.354.354 0 01.135-.507c1.015-.544 1.194-.445 2.216-.886-1-1-2.037-1.36-3.681-1.774-.322-.067-.507-.337-.561-.634a10.17 10.17 0 00-.471-1.307c-1.421-2.871-3.192-6.625-6.786-6.907a.896.896 0 01-.62-.257c-.453-.432-1.087-.967-1.67-1.055-.115.011-.057-.028-.146.054-.233.273-.186.283-.026.63.216.369.628.791 1.033 1.208.411.531.126 1.308.396 1.904.111.423.344.923.603 1.229a.672.672 0 01.124.55c-.288 1.377-.491 2.862-.212 4.241.006.147.15.202.256.149.033-.026.032-.008.16-.233.157-.35 1.276-2.491 1.601-1.798.473 1.538 1.13 4.53 2.522 5.455.059.025.013.122-.045.089-1.454-.751-2.631-2.682-2.978-3.984-.27.023-.512.242-.648.493-.205.719-1.26.756-1.449-.013a5.953 5.953 0 01-.167-.905c-.111-1.11-.041-2.753.211-3.582-.704-.76-1.098-2.227-1.005-2.995-.413-.418-.847-.829-1.17-1.344-.608-.774-.076-2.132.967-2.083.924.077 1.672.707 2.33 1.301.729-.065 2.173.444 2.982.991 1.834 1.191 2.799 3.236 3.847 5.078.409.836 1.142 2.25 1.123 2.924 1.866.578 3.975 1.277 5.039 3.046a.063.063 0 01-.038.091l-2.9.91 1.921 3c.033.05-.047.112-.084.056z"/><path fill="#fff" d="M27.046 13.688l.833 1.189c0 .001.951-1.347-.833-1.189z"/><g fill="#fff"><path d="M9.762 20.071c.776.927 2.018 1.829 2.809 3.135a.354.354 0 01-.135.507c-1.015.543-1.193.444-2.215.886 1 1 2.037 1.36 3.681 1.774.322.067.507.337.561.634.088.323.275.87.471 1.307 1.421 2.871 3.192 6.625 6.786 6.907a.896.896 0 01.62.257c.453.432 1.087.967 1.67 1.055.115-.011.057.028.146-.054.233-.273.186-.283.026-.63-.216-.369-.628-.791-1.033-1.208-.411-.531-.126-1.308-.396-1.904-.111-.423-.344-.923-.603-1.229a.672.672 0 01-.124-.55c.288-1.377.491-2.862.212-4.241-.006-.147-.15-.202-.256-.149-.033.026-.032.008-.16.233-.158.348-1.277 2.49-1.602 1.796-.473-1.538-1.13-4.53-2.522-5.455-.059-.025-.013-.122.045-.089 1.454.751 2.631 2.682 2.978 3.984.27-.023.512-.242.648-.493.205-.719 1.26-.756 1.449.013.076.298.138.6.167.905.111 1.11.041 2.753-.211 3.582.704.76 1.098 2.227 1.005 2.995.413.418.847.829 1.17 1.344.608.774.076 2.132-.967 2.083-.924-.077-1.672-.707-2.33-1.301-.729.065-2.173-.444-2.982-.991-1.834-1.191-2.799-3.236-3.847-5.078-.409-.836-1.142-2.25-1.123-2.924-1.866-.578-3.975-1.277-5.039-3.046a.063.063 0 01.038-.091l2.9-.91-1.921-3c-.033-.048.047-.109.084-.054z"/><path d="M21.174 33.911l-.833-1.189c.001 0-.951 1.348.833 1.189z"/></g></svg>